<svg xmlns="http://www.w3.org/2000/svg" viewBox="0 0 37 37" shape-rendering="crispEdges"><rect width="37" height="37" fill="#FFFFFF"/><path d="M2 2h7v1h-7zM12 2h2v1h-2zM15 2h1v1h-1zM18 2h5v1h-5zM25 2h1v1h-1zM28 2h7v1h-7zM2 3h1v1h-1zM8 3h1v1h-1zM11 3h1v1h-1zM14 3h4v1h-4zM19 3h1v1h-1zM22 3h3v1h-3zM28 3h1v1h-1zM34 3h1v1h-1zM2 4h1v1h-1zM4 4h3v1h-3zM8 4h1v1h-1zM10 4h1v1h-1zM12 4h1v1h-1zM14 4h2v1h-2zM18 4h3v1h-3zM22 4h3v1h-3zM26 4h1v1h-1zM28 4h1v1h-1zM30 4h3v1h-3zM34 4h1v1h-1zM2 5h1v1h-1zM4 5h3v1h-3zM8 5h1v1h-1zM10 5h2v1h-2zM16 5h1v1h-1zM18 5h1v1h-1zM21 5h2v1h-2zM25 5h2v1h-2zM28 5h1v1h-1zM30 5h3v1h-3zM34 5h1v1h-1zM2 6h1v1h-1zM4 6h3v1h-3zM8 6h1v1h-1zM10 6h3v1h-3zM17 6h1v1h-1zM19 6h2v1h-2zM23 6h3v1h-3zM28 6h1v1h-1zM30 6h3v1h-3zM34 6h1v1h-1zM2 7h1v1h-1zM8 7h1v1h-1zM10 7h1v1h-1zM12 7h2v1h-2zM15 7h1v1h-1zM17 7h2v1h-2zM20 7h1v1h-1zM22 7h2v1h-2zM28 7h1v1h-1zM34 7h1v1h-1zM2 8h7v1h-7zM10 8h1v1h-1zM12 8h1v1h-1zM14 8h1v1h-1zM16 8h1v1h-1zM18 8h1v1h-1zM20 8h1v1h-1zM22 8h1v1h-1zM24 8h1v1h-1zM26 8h1v1h-1zM28 8h7v1h-7zM10 9h2v1h-2zM17 9h1v1h-1zM23 9h2v1h-2zM2 10h1v1h-1zM4 10h5v1h-5zM11 10h3v1h-3zM15 10h3v1h-3zM19 10h1v1h-1zM24 10h1v1h-1zM26 10h1v1h-1zM28 10h5v1h-5zM4 11h2v1h-2zM7 11h1v1h-1zM9 11h4v1h-4zM16 11h1v1h-1zM21 11h2v1h-2zM25 11h1v1h-1zM28 11h2v1h-2zM31 11h2v1h-2zM34 11h1v1h-1zM5 12h5v1h-5zM13 12h2v1h-2zM17 12h2v1h-2zM20 12h1v1h-1zM22 12h3v1h-3zM26 12h3v1h-3zM30 12h1v1h-1zM32 12h2v1h-2zM2 13h1v1h-1zM5 13h2v1h-2zM9 13h3v1h-3zM13 13h1v1h-1zM16 13h3v1h-3zM22 13h3v1h-3zM27 13h2v1h-2zM30 13h4v1h-4zM2 14h1v1h-1zM4 14h2v1h-2zM7 14h8v1h-8zM20 14h1v1h-1zM24 14h4v1h-4zM30 14h2v1h-2zM33 14h2v1h-2zM6 15h1v1h-1zM10 15h9v1h-9zM22 15h4v1h-4zM28 15h2v1h-2zM32 15h3v1h-3zM3 16h1v1h-1zM6 16h1v1h-1zM8 16h1v1h-1zM10 16h1v1h-1zM12 16h3v1h-3zM19 16h3v1h-3zM23 16h2v1h-2zM27 16h2v1h-2zM30 16h4v1h-4zM3 17h3v1h-3zM7 17h1v1h-1zM12 17h5v1h-5zM18 17h1v1h-1zM21 17h3v1h-3zM25 17h1v1h-1zM27 17h2v1h-2zM30 17h3v1h-3zM8 18h1v1h-1zM10 18h2v1h-2zM14 18h2v1h-2zM19 18h1v1h-1zM21 18h2v1h-2zM24 18h1v1h-1zM26 18h2v1h-2zM29 18h3v1h-3zM34 18h1v1h-1zM3 19h3v1h-3zM10 19h1v1h-1zM14 19h2v1h-2zM18 19h2v1h-2zM21 19h3v1h-3zM25 19h1v1h-1zM28 19h2v1h-2zM31 19h2v1h-2zM34 19h1v1h-1zM2 20h1v1h-1zM6 20h1v1h-1zM8 20h2v1h-2zM11 20h1v1h-1zM14 20h1v1h-1zM17 20h3v1h-3zM23 20h1v1h-1zM27 20h4v1h-4zM32 20h2v1h-2zM4 21h4v1h-4zM11 21h1v1h-1zM14 21h3v1h-3zM18 21h3v1h-3zM22 21h3v1h-3zM26 21h9v1h-9zM2 22h1v1h-1zM5 22h2v1h-2zM8 22h7v1h-7zM18 22h1v1h-1zM21 22h2v1h-2zM24 22h4v1h-4zM29 22h3v1h-3zM33 22h2v1h-2zM2 23h1v1h-1zM4 23h2v1h-2zM12 23h1v1h-1zM14 23h2v1h-2zM17 23h1v1h-1zM20 23h1v1h-1zM24 23h2v1h-2zM27 23h3v1h-3zM31 23h2v1h-2zM34 23h1v1h-1zM2 24h1v1h-1zM4 24h6v1h-6zM12 24h1v1h-1zM14 24h1v1h-1zM16 24h5v1h-5zM22 24h1v1h-1zM24 24h1v1h-1zM29 24h1v1h-1zM32 24h2v1h-2zM2 25h1v1h-1zM4 25h4v1h-4zM11 25h2v1h-2zM14 25h1v1h-1zM16 25h2v1h-2zM23 25h2v1h-2zM26 25h2v1h-2zM29 25h4v1h-4zM2 26h1v1h-1zM6 26h1v1h-1zM8 26h3v1h-3zM13 26h1v1h-1zM15 26h1v1h-1zM17 26h1v1h-1zM19 26h2v1h-2zM24 26h7v1h-7zM10 27h7v1h-7zM18 27h1v1h-1zM20 27h5v1h-5zM26 27h1v1h-1zM30 27h1v1h-1zM32 27h1v1h-1zM34 27h1v1h-1zM2 28h7v1h-7zM11 28h1v1h-1zM15 28h4v1h-4zM20 28h1v1h-1zM25 28h2v1h-2zM28 28h1v1h-1zM30 28h1v1h-1zM32 28h1v1h-1zM2 29h1v1h-1zM8 29h1v1h-1zM10 29h2v1h-2zM21 29h3v1h-3zM25 29h2v1h-2zM30 29h3v1h-3zM34 29h1v1h-1zM2 30h1v1h-1zM4 30h3v1h-3zM8 30h1v1h-1zM10 30h2v1h-2zM17 30h1v1h-1zM20 30h2v1h-2zM23 30h1v1h-1zM26 30h6v1h-6zM2 31h1v1h-1zM4 31h3v1h-3zM8 31h1v1h-1zM10 31h3v1h-3zM14 31h1v1h-1zM16 31h4v1h-4zM22 31h2v1h-2zM27 31h1v1h-1zM30 31h1v1h-1zM32 31h3v1h-3zM2 32h1v1h-1zM4 32h3v1h-3zM8 32h1v1h-1zM10 32h1v1h-1zM12 32h1v1h-1zM14 32h3v1h-3zM19 32h1v1h-1zM21 32h1v1h-1zM25 32h2v1h-2zM28 32h2v1h-2zM31 32h1v1h-1zM2 33h1v1h-1zM8 33h1v1h-1zM14 33h1v1h-1zM18 33h1v1h-1zM20 33h5v1h-5zM30 33h3v1h-3zM2 34h7v1h-7zM10 34h2v1h-2zM13 34h1v1h-1zM19 34h1v1h-1zM21 34h1v1h-1zM25 34h2v1h-2zM28 34h2v1h-2zM33 34h1v1h-1z" fill="#1F1A16"/></svg>